<?xml version="1.0" encoding="iso-8859-1"?>
<!-- Generator: Adobe Illustrator 19.0.0, SVG Export Plug-In . SVG Version: 6.00 Build 0)  -->
<svg version="1.1" id="Capa_1" xmlns="http://www.w3.org/2000/svg" xmlns:xlink="http://www.w3.org/1999/xlink" x="0px" y="0px"
	 viewBox="0 0 512.004 512.004" style="enable-background:new 0 0 512.004 512.004;" xml:space="preserve">
<polygon style="fill:#D4F5FE;" points="480.509,214.711 404.783,138.984 247.019,296.748 247.019,372.475 322.746,372.475 "/>
<g>
	<path style="fill:#29CBFC;" d="M506.509,201.333l-75.727-75.727c-7.396-7.383-19.361-7.383-26.757,0L246.262,283.37
		c-3.547,3.547-5.553,8.355-5.553,13.378v75.727c0,10.45,8.481,18.932,18.932,18.932l0,0h75.727c5.023,0,9.832-2.007,13.378-5.553
		l157.764-157.764C513.854,220.706,513.816,208.741,506.509,201.333z M327.542,353.543h-48.97v-48.97l138.832-138.832l48.97,48.97
		L327.542,353.543z"/>
	<path style="fill:#29CBFC;" d="M193.884,356.32l-41.019-25.242c-6.083-3.736-13.732-3.736-19.815,0l-31.174,19.184l-31.048-19.184
		c-6.083-3.736-13.732-3.736-19.815,0L9.995,356.32c-9.213,4.935-12.684,16.407-7.749,25.621s16.407,12.684,25.621,7.749
		c0.669-0.353,1.313-0.757,1.944-1.199l31.174-19.184l31.174,19.184c6.083,3.736,13.732,3.736,19.815,0l31.048-19.184l31.048,19.184
		c8.557,6.008,20.37,3.938,26.378-4.619c6.008-8.557,3.938-20.37-4.619-26.378C195.209,357.077,194.553,356.673,193.884,356.32z"/>
</g>
<g>
</g>
<g>
</g>
<g>
</g>
<g>
</g>
<g>
</g>
<g>
</g>
<g>
</g>
<g>
</g>
<g>
</g>
<g>
</g>
<g>
</g>
<g>
</g>
<g>
</g>
<g>
</g>
<g>
</g>
</svg>
